<svg width="23" height="21" viewBox="0 0 23 21" fill="none" xmlns="http://www.w3.org/2000/svg">
<path d="M3.59293 20.4658H18.6627C21.0268 20.4658 22.2467 19.2459 22.2467 16.9088V3.57891C22.2467 1.23985 21.0268 0.0219116 18.6627 0.0219116H3.59293C1.22889 0.0219116 0 1.23087 0 3.57891V16.9088C0 19.2548 1.22889 20.4658 3.59293 20.4658ZM3.56269 18.32C2.64309 18.32 2.14584 17.8486 2.14584 16.8851V6.76571C2.14584 5.81128 2.64309 5.33287 3.56269 5.33287H18.6751C19.5946 5.33287 20.1009 5.81128 20.1009 6.76571V16.8851C20.1009 17.8486 19.5946 18.32 18.6751 18.32H3.56269ZM9.02062 9.12889H9.66686C10.0561 9.12889 10.1825 9.01344 10.1825 8.62419V7.97795C10.1825 7.58869 10.0561 7.46427 9.66686 7.46427H9.02062C8.63136 7.46427 8.49603 7.58869 8.49603 7.97795V8.62419C8.49603 9.01344 8.63136 9.12889 9.02062 9.12889ZM12.5998 9.12889H13.246C13.6352 9.12889 13.7726 9.01344 13.7726 8.62419V7.97795C13.7726 7.58869 13.6352 7.46427 13.246 7.46427H12.5998C12.2106 7.46427 12.0751 7.58869 12.0751 7.97795V8.62419C12.0751 9.01344 12.2106 9.12889 12.5998 9.12889ZM16.1809 9.12889H16.8271C17.2164 9.12889 17.3517 9.01344 17.3517 8.62419V7.97795C17.3517 7.58869 17.2164 7.46427 16.8271 7.46427H16.1809C15.7916 7.46427 15.6652 7.58869 15.6652 7.97795V8.62419C15.6652 9.01344 15.7916 9.12889 16.1809 9.12889ZM5.44152 12.6532H6.07677C6.47698 12.6532 6.60338 12.5378 6.60338 12.1485V11.5023C6.60338 11.1131 6.47698 10.9976 6.07677 10.9976H5.44152C5.04131 10.9976 4.91491 11.1131 4.91491 11.5023V12.1485C4.91491 12.5378 5.04131 12.6532 5.44152 12.6532ZM9.02062 12.6532H9.66686C10.0561 12.6532 10.1825 12.5378 10.1825 12.1485V11.5023C10.1825 11.1131 10.0561 10.9976 9.66686 10.9976H9.02062C8.63136 10.9976 8.49603 11.1131 8.49603 11.5023V12.1485C8.49603 12.5378 8.63136 12.6532 9.02062 12.6532ZM12.5998 12.6532H13.246C13.6352 12.6532 13.7726 12.5378 13.7726 12.1485V11.5023C13.7726 11.1131 13.6352 10.9976 13.246 10.9976H12.5998C12.2106 10.9976 12.0751 11.1131 12.0751 11.5023V12.1485C12.0751 12.5378 12.2106 12.6532 12.5998 12.6532ZM16.1809 12.6532H16.8271C17.2164 12.6532 17.3517 12.5378 17.3517 12.1485V11.5023C17.3517 11.1131 17.2164 10.9976 16.8271 10.9976H16.1809C15.7916 10.9976 15.6652 11.1131 15.6652 11.5023V12.1485C15.6652 12.5378 15.7916 12.6532 16.1809 12.6532ZM5.44152 16.1866H6.07677C6.47698 16.1866 6.60338 16.0642 6.60338 15.6729V15.0287C6.60338 14.6375 6.47698 14.524 6.07677 14.524H5.44152C5.04131 14.524 4.91491 14.6375 4.91491 15.0287V15.6729C4.91491 16.0642 5.04131 16.1866 5.44152 16.1866ZM9.02062 16.1866H9.66686C10.0561 16.1866 10.1825 16.0642 10.1825 15.6729V15.0287C10.1825 14.6375 10.0561 14.524 9.66686 14.524H9.02062C8.63136 14.524 8.49603 14.6375 8.49603 15.0287V15.6729C8.49603 16.0642 8.63136 16.1866 9.02062 16.1866ZM12.5998 16.1866H13.246C13.6352 16.1866 13.7726 16.0642 13.7726 15.6729V15.0287C13.7726 14.6375 13.6352 14.524 13.246 14.524H12.5998C12.2106 14.524 12.0751 14.6375 12.0751 15.0287V15.6729C12.0751 16.0642 12.2106 16.1866 12.5998 16.1866Z" fill="black" fill-opacity="0.85"/>
</svg>
