<svg width="11" height="10" viewBox="0 0 11 10" fill="none" xmlns="http://www.w3.org/2000/svg">
<path d="M9.73598 0.969999C9.80423 0.900365 9.88568 0.845046 9.97557 0.807281C10.0655 0.769517 10.162 0.750065 10.2595 0.750065C10.357 0.750065 10.4535 0.769517 10.5434 0.807281C10.6333 0.845046 10.7147 0.900365 10.783 0.969999C11.069 1.259 11.073 1.726 10.793 2.02L4.87998 9.01C4.81285 9.08372 4.73138 9.14297 4.64056 9.18412C4.54974 9.22528 4.45148 9.24747 4.35179 9.24934C4.2521 9.25121 4.15307 9.23272 4.06077 9.19501C3.96847 9.1573 3.88483 9.10115 3.81498 9.03L0.21698 5.384C0.0782173 5.24248 0.000488281 5.05219 0.000488281 4.854C0.000488281 4.6558 0.0782173 4.46551 0.21698 4.324C0.285226 4.25436 0.366679 4.19905 0.456569 4.16128C0.546459 4.12352 0.64298 4.10406 0.74048 4.10406C0.837981 4.10406 0.934502 4.12352 1.02439 4.16128C1.11428 4.19905 1.19573 4.25436 1.26398 4.324L4.31598 7.417L9.71598 0.991999C9.7222 0.984271 9.72888 0.976924 9.73598 0.969999Z" fill="black"/>
</svg>
