<svg width="20" height="20" viewBox="0 0 20 20" fill="none" xmlns="http://www.w3.org/2000/svg">
<rect width="19.24" height="19.24" rx="9.62" fill="black"/>
<path d="M13.1247 6.63779C13.1752 6.58626 13.2355 6.54532 13.302 6.51738C13.3685 6.48943 13.4399 6.47504 13.5121 6.47504C13.5842 6.47504 13.6556 6.48943 13.7222 6.51738C13.7887 6.54532 13.849 6.58626 13.8995 6.63779C14.1111 6.85165 14.1141 7.19723 13.9069 7.41479L9.53123 12.5874C9.48155 12.6419 9.42127 12.6858 9.35406 12.7162C9.28686 12.7467 9.21414 12.7631 9.14037 12.7645C9.0666 12.7659 8.99332 12.7522 8.92502 12.7243C8.85672 12.6964 8.79483 12.6548 8.74313 12.6022L6.08061 9.90415C5.97793 9.79943 5.92041 9.65861 5.92041 9.51195C5.92041 9.36528 5.97793 9.22447 6.08061 9.11975C6.13112 9.06822 6.19139 9.02728 6.25791 8.99934C6.32443 8.97139 6.39585 8.957 6.468 8.957C6.54015 8.957 6.61158 8.97139 6.6781 8.99934C6.74462 9.02728 6.80489 9.06822 6.85539 9.11975L9.11387 11.4086L13.1099 6.65407C13.1145 6.64835 13.1194 6.64291 13.1247 6.63779Z" fill="white"/>
</svg>
