<svg width="53" height="41" viewBox="0 0 53 41" fill="none" xmlns="http://www.w3.org/2000/svg">
<path d="M23.5907 30.2C23.5907 33.2932 22.5958 35.8 20.6058 37.72C18.6159 39.5332 16.1023 40.44 13.0651 40.44C9.39939 40.44 6.36211 39.2132 3.95323 36.76C1.64911 34.3064 0.49707 30.7868 0.49707 26.2C0.49707 21.2933 1.85859 16.4933 4.58163 11.8C7.40947 6.99997 11.337 3.21329 16.3642 0.439972L19.9774 6.03997C17.2544 7.95997 15.055 10.0933 13.3793 12.44C11.8083 14.7867 10.7609 17.5067 10.2373 20.6C11.1799 20.1733 12.2796 19.96 13.5364 19.96C16.4689 19.96 18.8778 20.92 20.7629 22.84C22.6481 24.76 23.5907 27.2133 23.5907 30.2ZM52.497 30.2C52.497 33.2932 51.5022 35.8 49.5122 37.72C47.5222 39.5332 45.0086 40.44 41.9714 40.44C38.3058 40.44 35.2686 39.2132 32.8596 36.76C30.5555 34.3064 29.4034 30.7868 29.4034 26.2C29.4034 21.2933 30.7649 16.4933 33.488 11.8C36.3158 6.99997 40.2434 3.21329 45.2706 0.439972L48.8838 6.03997C46.1606 7.95997 43.9614 10.0933 42.2854 12.44C40.7146 14.7867 39.6674 17.5067 39.1434 20.6C40.0862 20.1733 41.1858 19.96 42.4426 19.96C45.375 19.96 47.7842 20.92 49.6694 22.84C51.5546 24.76 52.497 27.2133 52.497 30.2Z" fill="#F3F4F6" fill-opacity="0.2"/>
</svg>